<svg width="221" height="41" viewBox="0 0 221 41" fill="none" xmlns="http://www.w3.org/2000/svg">
<g clip-path="url(#clip0_4_24)">
<path d="M25.4099 1.97689L21.4769 0.923035L18.1625 13.2926L15.1702 2.12527L11.2371 3.17913L14.4701 15.2446L6.41746 7.19201L3.53827 10.0712L12.371 18.904L1.37124 15.9566L0.317383 19.8896L12.336 23.11C12.1984 22.5165 12.1256 21.8981 12.1256 21.2627C12.1256 16.7651 15.7716 13.1191 20.2692 13.1191C24.7668 13.1191 28.4128 16.7651 28.4128 21.2627C28.4128 21.894 28.3409 22.5086 28.205 23.0986L39.1277 26.0253L40.1815 22.0923L28.1151 18.8591L39.1156 15.9115L38.0617 11.9785L25.9958 15.2115L34.0484 7.15895L31.1692 4.27976L22.459 12.99L25.4099 1.97689Z" fill="#F97316"/>
<path d="M28.1943 23.1444C27.8571 24.57 27.1452 25.8507 26.1684 26.8768L34.0814 34.7899L36.9606 31.9107L28.1943 23.1444Z" fill="#F97316"/>
<path d="M26.0884 26.9596C25.0998 27.9693 23.8505 28.7228 22.4495 29.1111L25.3289 39.8571L29.2619 38.8032L26.0884 26.9596Z" fill="#F97316"/>
<path d="M22.3026 29.1504C21.6526 29.3175 20.9713 29.4063 20.2692 29.4063C19.517 29.4063 18.7886 29.3043 18.0971 29.1134L15.2151 39.8692L19.1481 40.923L22.3026 29.1504Z" fill="#F97316"/>
<path d="M17.9581 29.0737C16.5785 28.6661 15.3514 27.903 14.383 26.8904L6.45053 34.8229L9.32972 37.7021L17.9581 29.0737Z" fill="#F97316"/>
<path d="M14.3168 26.8203C13.365 25.8013 12.6717 24.5377 12.3417 23.1341L1.38333 26.0704L2.43718 30.0034L14.3168 26.8203Z" fill="#F97316"/>
</g>
<path d="M46.8523 14.5881V11.5455H61.1875V14.5881H55.8438V29H52.196V14.5881H46.8523ZM65.4318 29.2472C64.5966 29.2472 63.8523 29.1023 63.1989 28.8125C62.5455 28.517 62.0284 28.0824 61.6477 27.5085C61.2727 26.929 61.0852 26.2074 61.0852 25.3438C61.0852 24.6165 61.2188 24.0057 61.4858 23.5114C61.7528 23.017 62.1165 22.6193 62.5767 22.3182C63.0369 22.017 63.5597 21.7898 64.1449 21.6364C64.7358 21.483 65.3551 21.375 66.0028 21.3125C66.7642 21.233 67.3778 21.1591 67.8438 21.0909C68.3097 21.017 68.6477 20.9091 68.858 20.767C69.0682 20.625 69.1733 20.4148 69.1733 20.1364V20.0852C69.1733 19.5455 69.0028 19.1278 68.6619 18.8324C68.3267 18.5369 67.8494 18.3892 67.2301 18.3892C66.5767 18.3892 66.0568 18.5341 65.6705 18.8239C65.2841 19.108 65.0284 19.4659 64.9034 19.8977L61.5455 19.625C61.7159 18.8295 62.0511 18.142 62.5511 17.5625C63.0511 16.9773 63.696 16.5284 64.4858 16.2159C65.2813 15.8977 66.2017 15.7386 67.2472 15.7386C67.9744 15.7386 68.6705 15.8239 69.3352 15.9943C70.0057 16.1648 70.5994 16.429 71.1165 16.7869C71.6392 17.1449 72.0511 17.6051 72.3523 18.1676C72.6534 18.7244 72.804 19.392 72.804 20.1705V29H69.3608V27.1847H69.2585C69.0483 27.5938 68.767 27.9545 68.4148 28.267C68.0625 28.5739 67.6392 28.8153 67.1449 28.9915C66.6506 29.1619 66.0795 29.2472 65.4318 29.2472ZM66.4716 26.7415C67.0057 26.7415 67.4773 26.6364 67.8864 26.4261C68.2955 26.2102 68.6165 25.9205 68.8494 25.5568C69.0824 25.1932 69.1989 24.7812 69.1989 24.321V22.9318C69.0852 23.0057 68.929 23.0739 68.7301 23.1364C68.5369 23.1932 68.3182 23.2472 68.0739 23.2983C67.8295 23.3437 67.5852 23.3864 67.3409 23.4261C67.0966 23.4602 66.875 23.4915 66.6761 23.5199C66.25 23.5824 65.8778 23.6818 65.5597 23.8182C65.2415 23.9545 64.9943 24.1392 64.8182 24.3722C64.642 24.5994 64.554 24.8835 64.554 25.2244C64.554 25.7188 64.733 26.0966 65.0909 26.358C65.4545 26.6136 65.9148 26.7415 66.4716 26.7415ZM79.2514 11.5455V29H75.6207V11.5455H79.2514ZM88.1257 29.2557C86.7791 29.2557 85.62 28.983 84.6484 28.4375C83.6825 27.8864 82.9382 27.108 82.4155 26.1023C81.8928 25.0909 81.6314 23.8949 81.6314 22.5142C81.6314 21.1676 81.8928 19.9858 82.4155 18.9688C82.9382 17.9517 83.674 17.1591 84.6229 16.5909C85.5774 16.0227 86.6967 15.7386 87.9808 15.7386C88.8445 15.7386 89.6484 15.8778 90.3928 16.1562C91.1428 16.429 91.7962 16.8409 92.353 17.392C92.9155 17.9432 93.353 18.6364 93.6655 19.4716C93.978 20.3011 94.1342 21.2727 94.1342 22.3864V23.3835H83.0803V21.1335H90.7166C90.7166 20.6108 90.603 20.1477 90.3757 19.7443C90.1484 19.3409 89.8331 19.0256 89.4297 18.7983C89.032 18.5653 88.5689 18.4489 88.0405 18.4489C87.4893 18.4489 87.0007 18.5767 86.5746 18.8324C86.1541 19.0824 85.8246 19.4205 85.5859 19.8466C85.3473 20.267 85.2251 20.7358 85.2195 21.2528V23.392C85.2195 24.0398 85.3388 24.5994 85.5774 25.071C85.8217 25.5426 86.1655 25.9062 86.6087 26.1619C87.0518 26.4176 87.5774 26.5455 88.1854 26.5455C88.5888 26.5455 88.9581 26.4886 89.2933 26.375C89.6286 26.2614 89.9155 26.0909 90.1541 25.8636C90.3928 25.6364 90.5746 25.358 90.6996 25.0284L94.0575 25.25C93.8871 26.0568 93.5376 26.7614 93.0092 27.3636C92.4865 27.9602 91.8104 28.4261 90.9808 28.7614C90.157 29.0909 89.2053 29.2557 88.1257 29.2557ZM100.134 21.4318V29H96.5036V15.9091H99.9638V18.2188H100.117C100.407 17.4574 100.893 16.8551 101.575 16.4119C102.256 15.9631 103.083 15.7386 104.055 15.7386C104.964 15.7386 105.756 15.9375 106.433 16.3352C107.109 16.733 107.634 17.3011 108.009 18.0398C108.384 18.7727 108.572 19.6477 108.572 20.6648V29H104.941V21.3125C104.947 20.5114 104.742 19.8864 104.327 19.4375C103.913 18.983 103.342 18.7557 102.614 18.7557C102.126 18.7557 101.694 18.8608 101.319 19.071C100.95 19.2812 100.66 19.5881 100.45 19.9915C100.245 20.3892 100.14 20.8693 100.134 21.4318ZM118.396 15.9091V18.6364H110.513V15.9091H118.396ZM112.303 12.7727H115.933V24.9773C115.933 25.3125 115.984 25.5739 116.087 25.7614C116.189 25.9432 116.331 26.071 116.513 26.1449C116.7 26.2187 116.916 26.2557 117.161 26.2557C117.331 26.2557 117.501 26.2415 117.672 26.2131C117.842 26.179 117.973 26.1534 118.064 26.1364L118.635 28.8381C118.453 28.8949 118.197 28.9602 117.868 29.0341C117.538 29.1136 117.138 29.1619 116.666 29.179C115.791 29.2131 115.024 29.0966 114.365 28.8295C113.712 28.5625 113.203 28.1477 112.839 27.5852C112.476 27.0227 112.297 26.3125 112.303 25.4545V12.7727ZM132.572 29H126.384V11.5455H132.623C134.379 11.5455 135.89 11.8949 137.157 12.5938C138.424 13.2869 139.398 14.2841 140.08 15.5852C140.768 16.8864 141.112 18.4432 141.112 20.2557C141.112 22.0739 140.768 23.6364 140.08 24.9432C139.398 26.25 138.418 27.2528 137.14 27.9517C135.867 28.6506 134.344 29 132.572 29ZM130.075 25.8381H132.418C133.509 25.8381 134.427 25.6449 135.171 25.2585C135.921 24.8665 136.484 24.2614 136.859 23.4432C137.239 22.6193 137.43 21.5568 137.43 20.2557C137.43 18.9659 137.239 17.9119 136.859 17.0938C136.484 16.2756 135.924 15.6733 135.18 15.2869C134.435 14.9006 133.518 14.7074 132.427 14.7074H130.075V25.8381ZM143.777 29V15.9091H147.408V29H143.777ZM145.601 14.2216C145.061 14.2216 144.598 14.0426 144.212 13.6847C143.831 13.321 143.641 12.8864 143.641 12.3807C143.641 11.8807 143.831 11.4517 144.212 11.0938C144.598 10.7301 145.061 10.5483 145.601 10.5483C146.141 10.5483 146.601 10.7301 146.982 11.0938C147.368 11.4517 147.561 11.8807 147.561 12.3807C147.561 12.8864 147.368 13.321 146.982 13.6847C146.601 14.0426 146.141 14.2216 145.601 14.2216ZM150.316 29V15.9091H153.836V18.1932H153.972C154.211 17.3807 154.612 16.767 155.174 16.3523C155.737 15.9318 156.384 15.7216 157.117 15.7216C157.299 15.7216 157.495 15.733 157.705 15.7557C157.915 15.7784 158.1 15.8097 158.259 15.8494V19.071C158.089 19.0199 157.853 18.9744 157.552 18.9347C157.251 18.8949 156.975 18.875 156.725 18.875C156.191 18.875 155.714 18.9915 155.293 19.2244C154.879 19.4517 154.549 19.7699 154.305 20.179C154.066 20.5881 153.947 21.0597 153.947 21.5938V29H150.316ZM165.493 29.2557C164.146 29.2557 162.987 28.983 162.016 28.4375C161.05 27.8864 160.305 27.108 159.783 26.1023C159.26 25.0909 158.999 23.8949 158.999 22.5142C158.999 21.1676 159.26 19.9858 159.783 18.9688C160.305 17.9517 161.041 17.1591 161.99 16.5909C162.945 16.0227 164.064 15.7386 165.348 15.7386C166.212 15.7386 167.016 15.8778 167.76 16.1562C168.51 16.429 169.163 16.8409 169.72 17.392C170.283 17.9432 170.72 18.6364 171.033 19.4716C171.345 20.3011 171.501 21.2727 171.501 22.3864V23.3835H160.447V21.1335H168.084C168.084 20.6108 167.97 20.1477 167.743 19.7443C167.516 19.3409 167.2 19.0256 166.797 18.7983C166.399 18.5653 165.936 18.4489 165.408 18.4489C164.857 18.4489 164.368 18.5767 163.942 18.8324C163.521 19.0824 163.192 19.4205 162.953 19.8466C162.714 20.267 162.592 20.7358 162.587 21.2528V23.392C162.587 24.0398 162.706 24.5994 162.945 25.071C163.189 25.5426 163.533 25.9062 163.976 26.1619C164.419 26.4176 164.945 26.5455 165.553 26.5455C165.956 26.5455 166.325 26.4886 166.661 26.375C166.996 26.2614 167.283 26.0909 167.521 25.8636C167.76 25.6364 167.942 25.358 168.067 25.0284L171.425 25.25C171.254 26.0568 170.905 26.7614 170.376 27.3636C169.854 27.9602 169.178 28.4261 168.348 28.7614C167.524 29.0909 166.572 29.2557 165.493 29.2557ZM179.786 29.2557C178.445 29.2557 177.291 28.9716 176.325 28.4034C175.365 27.8295 174.626 27.0341 174.109 26.017C173.598 25 173.342 23.8295 173.342 22.5057C173.342 21.1648 173.601 19.9886 174.118 18.9773C174.641 17.9602 175.382 17.1676 176.342 16.5994C177.303 16.0256 178.445 15.7386 179.768 15.7386C180.911 15.7386 181.911 15.946 182.768 16.3608C183.626 16.7756 184.305 17.358 184.805 18.108C185.305 18.858 185.581 19.7386 185.632 20.75H182.206C182.109 20.0966 181.854 19.571 181.439 19.1733C181.03 18.7699 180.493 18.5682 179.828 18.5682C179.266 18.5682 178.774 18.7216 178.354 19.0284C177.939 19.3295 177.615 19.7699 177.382 20.3494C177.149 20.929 177.033 21.6307 177.033 22.4545C177.033 23.2898 177.146 24 177.374 24.5852C177.607 25.1705 177.933 25.6165 178.354 25.9233C178.774 26.2301 179.266 26.3835 179.828 26.3835C180.243 26.3835 180.615 26.2983 180.945 26.1278C181.28 25.9574 181.555 25.7102 181.771 25.3864C181.993 25.0568 182.138 24.6619 182.206 24.2017H185.632C185.575 25.2017 185.303 26.0824 184.814 26.8438C184.331 27.5994 183.663 28.1903 182.811 28.6165C181.959 29.0426 180.95 29.2557 179.786 29.2557ZM194.92 15.9091V18.6364H187.036V15.9091H194.92ZM188.826 12.7727H192.457V24.9773C192.457 25.3125 192.508 25.5739 192.61 25.7614C192.712 25.9432 192.854 26.071 193.036 26.1449C193.224 26.2187 193.44 26.2557 193.684 26.2557C193.854 26.2557 194.025 26.2415 194.195 26.2131C194.366 26.179 194.496 26.1534 194.587 26.1364L195.158 28.8381C194.977 28.8949 194.721 28.9602 194.391 29.0341C194.062 29.1136 193.661 29.1619 193.19 29.179C192.315 29.2131 191.548 29.0966 190.888 28.8295C190.235 28.5625 189.727 28.1477 189.363 27.5852C188.999 27.0227 188.82 26.3125 188.826 25.4545V12.7727ZM203.059 29.2557C201.735 29.2557 200.59 28.9744 199.624 28.4119C198.664 27.8437 197.923 27.054 197.4 26.0426C196.877 25.0256 196.616 23.8466 196.616 22.5057C196.616 21.1534 196.877 19.9716 197.4 18.9602C197.923 17.9432 198.664 17.1534 199.624 16.5909C200.59 16.0227 201.735 15.7386 203.059 15.7386C204.383 15.7386 205.525 16.0227 206.485 16.5909C207.451 17.1534 208.195 17.9432 208.718 18.9602C209.241 19.9716 209.502 21.1534 209.502 22.5057C209.502 23.8466 209.241 25.0256 208.718 26.0426C208.195 27.054 207.451 27.8437 206.485 28.4119C205.525 28.9744 204.383 29.2557 203.059 29.2557ZM203.076 26.4432C203.678 26.4432 204.181 26.2727 204.585 25.9318C204.988 25.5852 205.292 25.1136 205.496 24.517C205.707 23.9205 205.812 23.2415 205.812 22.4801C205.812 21.7188 205.707 21.0398 205.496 20.4432C205.292 19.8466 204.988 19.375 204.585 19.0284C204.181 18.6818 203.678 18.5085 203.076 18.5085C202.468 18.5085 201.957 18.6818 201.542 19.0284C201.133 19.375 200.823 19.8466 200.613 20.4432C200.408 21.0398 200.306 21.7188 200.306 22.4801C200.306 23.2415 200.408 23.9205 200.613 24.517C200.823 25.1136 201.133 25.5852 201.542 25.9318C201.957 26.2727 202.468 26.4432 203.076 26.4432ZM211.863 29V15.9091H215.383V18.1932H215.519C215.758 17.3807 216.158 16.767 216.721 16.3523C217.283 15.9318 217.931 15.7216 218.664 15.7216C218.846 15.7216 219.042 15.733 219.252 15.7557C219.462 15.7784 219.647 15.8097 219.806 15.8494V19.071C219.636 19.0199 219.4 18.9744 219.099 18.9347C218.798 18.8949 218.522 18.875 218.272 18.875C217.738 18.875 217.261 18.9915 216.84 19.2244C216.425 19.4517 216.096 19.7699 215.852 20.179C215.613 20.5881 215.494 21.0597 215.494 21.5938V29H211.863Z" fill="black"/>
<defs>
<clipPath id="clip0_4_24">
<rect width="40" height="41" fill="white"/>
</clipPath>
</defs>
</svg>
